/* XPM */
static char *_99a6ec5600b4c47b69062c2c31848c9YAnTkT6OYnTip6ol[] = {
/* columns rows colors chars-per-pixel */
"16 16 31 1 ",
"  c None",
". c #212C55",
"X c #212E56",
"o c #222E57",
"O c #222F57",
"+ c #223058",
"@ c #223159",
"# c #22325B",
"$ c #22335B",
"% c #22345C",
"& c #23355D",
"* c #23365E",
"= c #233860",
"- c #233861",
"; c #233A62",
": c #243860",
"> c #243A63",
", c #243B63",
"< c #243C65",
"1 c #253C65",
"2 c #253F67",
"3 c #254068",
"4 c #254169",
"5 c #274B72",
"6 c #284C73",
"7 c #2A557C",
"8 c #2B597F",
"9 c #2C5C83",
"0 c #3BA3C8",
"q c #3BA4C9",
"w c #3DACD1",
/* pixels */
"      ***#      ",
" q   ****X      ",
" qw X***X  *    ",
"  0 #**#*   3   ",
"   O **#     :  ",
"  1           ; ",
"  X           1 ",
"  X             ",
" 7X             ",
"  X             ",
"  #           * ",
"  5           6 ",
"   :         *  ",
"    *       :   ",
"     813 119    ",
"                "
};
