/* XPM */
static char *f7c5c780570347e58e4b61d3295db970FRgkP4JYjlnRmSxl[] = {
/* columns rows colors chars-per-pixel */
"32 32 55 1 ",
"  c None",
". c #1F234C",
"X c #1F244C",
"o c #1F254D",
"O c #1F264E",
"+ c #1F274F",
"@ c #20264E",
"# c #20264F",
"$ c #20274F",
"% c #202750",
"& c #202850",
"* c #202851",
"= c #202951",
"- c #212951",
"; c #202952",
": c #202953",
"> c #202A52",
", c #212A52",
"< c #202A53",
"1 c #212A53",
"2 c #212B53",
"3 c #212C54",
"4 c #212C55",
"5 c #212D55",
"6 c #212E56",
"7 c #212F57",
"8 c #222E57",
"9 c #222F57",
"0 c #222F58",
"q c #223058",
"w c #223059",
"e c #223159",
"r c #22315A",
"t c #22325B",
"y c #23325B",
"u c #22335B",
"i c #23335C",
"p c #22345C",
"a c #23345C",
"s c #22355D",
"d c #23355D",
"f c #23365E",
"g c #23375E",
"h c #23375F",
"j c #233860",
"k c #243961",
"l c #253B63",
"z c #253D65",
"x c #253E66",
"c c #26446B",
"v c #29547B",
"b c #3BA4C9",
"n c #3BA5CA",
"m c #3BA6CB",
"M c #3CABD0",
/* pixels */
"             ffff               ",
"           fffffffffr           ",
"         fffffffhhff            ",
" bbbb    fffffffhhhr            ",
" bbbbm  ffffhaahahf k,*         ",
"  bbbb  rff  hhhhr    x,+       ",
"   bbM  ff  hhhhh,      f#      ",
"       rh  hahhh5        f,     ",
"      5f  ffhhhr          f#    ",
"     rf    fhh             ,    ",
"     5                      ,   ",
"    0f         5            5j  ",
"    5    f     f             5  ",
"    rf  f         hr         #  ",
"    f              h         +  ",
"   ff    f   f  hh           ,k ",
"   ,h      f                 #x ",
"   5f   ff  ff f   hh        #x ",
"   kf                        #  ",
"    ffff   fffff hh          #  ",
"    5    f                   ,  ",
"    rh    5r55rfi           r7  ",
"     5                      ,   ",
"     5i                    5r   ",
"      ,                    ,    ",
"       ,                  ,     ",
"        ,                ,      ",
"         ,,            ,r       ",
"          x,,        +,x        ",
"            cf5#+.%5fv          ",
"                                ",
"                                "
};
