/* XPM */
static char *d64262acb5f94b48ccfd37012ba898a4y6yjNptEVZVYI4Vs[] = {
/* columns rows colors chars-per-pixel */
"128 128 3 1 ",
"  c None",
". c #23365E",
"X c #3BA4C9",
/* pixels */
"                                                                                                                                ",
"                                                       ........                                                                 ",
"                                                  .....................                                                         ",
"                                               .............................                                                    ",
"                                             ...................................                                                ",
"                                           ........................................                                             ",
"                                          ...........................................                                           ",
"                                        ............................................                                            ",
"                                       ............................................                                             ",
"                                      ...........................................                                               ",
"                                     ............................................     XXX                                       ",
"    XXXXXXXXX                        ...........................................       XXXX                                     ",
" XXXXXXXXXXXXXXXX                   ...........................................          XXXX                                   ",
"  XXXXXXXXXXXXXXXXX                ...........................................              XXX                                 ",
"   XXXXXXXXXXXXXXXXX               ...........................................                XXX                               ",
"    XXXXXXXXXXXXXXXXX             ...........................................    .....          XXX                             ",
"     XXXXXXXXXXXXXXXXX            ...........................................    ........        XXXX                           ",
"     XXXXXXXXXXXXXXXXXX          ...........................................     ..........        XXX                          ",
"      XXXXXXXXXXX XXXXXX         ...........................................     ............        XX                         ",
"      XXXXXXXXXXXX  XXXX        .....................     .................        ............       XXX                       ",
"       XXXXXXXXXXXX   XXX       ..................      ...................           ..........       XXX                      ",
"       XXXXXXXXXXXXX   XX       ...............       ....................              ..........       XX                     ",
"        XXXXXXXXXXXXX   XX     ..............       ......................                .........       XX                    ",
"         XXXXXXXXXXXXX   X     ............       .......................     XXX           .........      XX                   ",
"          XXXXXXXXXXXXX        ..........        .......................       XXXXX          ........      XX                  ",
"           XXXXXXXXXXXX        .........       .........................          XXXXX        ........      XX                 ",
"            XXXXXXXXXXXX      .........       .........................              XXXX        .......      XX                ",
"              XXXXXXXXXX      .......        ..........................                XXX        .......      XX               ",
"                     XXX     .......        ..........................     XX            XXX       .......      XX              ",
"                     XX     .......        ..........................      XXXXXX          XXX       ......      XX             ",
"                    XX     .......        ..........................          XXXXX         XXX       ......      XX            ",
"                   XX     .......        ..........................              XXXX         XX       ......     XX            ",
"                   XX     ......        ..........................                  XXX        XX       ......     XX           ",
"                  XX     ......        ..........................                     XXX       XXX      ......     XX          ",
"                 XX     ......        ..........................       XXXX            XXX       XXX     .......    XX          ",
"                 X     ......         .........................         XXXXXXX          XXX      XXX     ......     XX         ",
"                XX     .....            .....................                XXXX         XXX      XXX     ......     XX        ",
"               XX     ......             ..................                    XXXX         XX      XX      ......    XX        ",
"               XX    ......                 ............                          XXX        XX      XX      .....     XX       ",
"              XX     .....                                                          XXX       XX      XX     ......    XX       ",
"              XX    ......                                         XXXXXX            XXX       XX      XX     .....     XX      ",
"             XX     .....                                          XXXXXXXXXX          XX       XX     XX     ......    XX      ",
"             XX    .....                                                  XXXXX         XX       XX     XX     .....     XX     ",
"            XX     .....                                                     XXXX        XX      XXX     XX     .....    XX     ",
"            XX    .....                                                        XXXX       XX      XX     XX     .....     XX    ",
"            X     .....                                     .....                XXX       XX      XX     XX     .....    XX    ",
"           XX    .....                   ........................                  XX       XX      XX     X     .....     X    ",
"           XX    .....                 ..........................                   XX       XX     XX     XX    ......    XX   ",
"           X     .....                ...........................                    XX      XX      XX     X     .....    XX   ",
"          XX    .....                ....                   .....                     XX      XX     XX     XX    .....     X   ",
"          XX    .....               ....                      .                        XX      XX     XX    XX     .....    XX  ",
"          X     .....              ...                                                  XX     XX     XX     XX    .....    XX  ",
"         XX    .....              ...                                        ..         XX      XX     XX    XX    .....    XX  ",
"         XX    .....             ...                                        ....         XX     XX     XX    XX     .....    X  ",
"         XX    ....................     .........................................         XX     XX    XX     X     .....    XX ",
"         X     ...................      .........................................         XX     XX     XX    XX    .....    XX ",
"         X    ......                                                       ......          XX     X     XX    XX    .....    XX ",
"        XX    .....                                                         ....           XX     XX    XX     X     ....    XX ",
"        XX    .....                                                                         X     XX     X     X     .....    X ",
"        XX    .....                                                                         XX    XX     XX    XX    .....    X ",
"        XX    ....                                                  ...                     XX     X     XX    XX    .....    XX",
"        XX    .....                                                .....                    XX     XX    XX    XX    .....    XX",
"        XX    .............................      ........................                    X     XX    XX    XX    .....    XX",
"        X    ...............................     ........................                    X     XX    XX    XX    .....    XX",
"        X    .....                        ...                      .....                     X     XX     X    XX    .....    XX",
"        X    .....                         ....                     ...                      XX    XX     X    XX    .....    XX",
"        X    .....                          ....                                             XX    XX     X     X    .....    XX",
"        X    .....                           ....                                            XX    XX     X    XX    .....    XX",
"        X    .....                            ....                              ....         XX    XX     X    XX    .....    XX",
"        X    ............................      ......................................        X     XX    XX    XX    .....    XX",
"        X    .............................      .....................................        X     XX    XX    XX    .....    XX",
"        XX    ............................        ...................................        X     XX    XX    XX    .....    XX",
"        XX    ....                                                              ....        XX     X     XX    XX    .....    XX",
"        XX    .....                                                              ..         XX     X     XX    XX    .....    XX",
"        XX    .....                                                                         X     XX     X     X     .....    X ",
"        XX    .....                                                     .                  XX     XX     X     X     ....     X ",
"         X    .....                                                   .....                XX     XX    XX    XX    .....    XX ",
"         X    ...................        ...................................               X     XX     XX    XX    .....    XX ",
"         XX    ....................     ....................................              XX     XX     X     XX    .....    XX ",
"         XX    .....................     ..................................               X      X     XX     X     .....    X  ",
"         XX    .....             ....                                  ....              XX     XX     XX    XX     ....     X  ",
"          X    .....              ....                                                  XX      XX     X     XX    .....    XX  ",
"          XX    .....              ....                                                 XX     XX     XX     X     .....    XX  ",
"          XX    .....               ....                      ...                      XX      X      X     XX     .....    X   ",
"          XX    .....                ....                    .....                    XX      XX     XX     XX    .....    XX   ",
"           X     .....                 ...........................                   XX      XX      X     XX     .....    XX   ",
"           XX    .....                  ..........................                  XX      XX      XX     XX    ......    X    ",
"           XX    ......                                      .....                XXX       XX     XX     XX     .....    XX    ",
"            XX    .....                                       ...                XXX       XX      XX     XX    ......    XX    ",
"            XX    ......                                                       XXX        XX      XX     XX     .....     X     ",
"             X     .....                                                    XXXX         XX      XX      X     ......    XX     ",
"             XX    ......                                                XXXXX         XXX      XXX     XX     .....     X      ",
"              X     .....                                           XXXXXXXX          XXX      XXX     XX     ......    XX      ",
"              XX    ......      X       X        XX                 XX               XX        XX     XX      .....     XX      ",
"               X     ......     XX      XX        XXX                              XXX       XXX      XX     ......    XX       ",
"               XX     .....      XX      XX        XXXX                          XXX        XXX      XX     ......     X        ",
"                XX    ......     XXX      XX         XXXX                     XXXXX        XXX      XX      .....     XX        ",
"                XX     ......     XXX      XXX         XXXXX               XXXXX          XXX      XX      ......    XX         ",
"                 XX     ......     XXX      XXX           XXXXXXXXXXXXXXXXXXXX          XXX       XX      ......     XX         ",
"                 XX     ......      XXX       XXX             XXXXXXXXXXXX             XXX       XX      ......     XX          ",
"                  XX     ......      XXX       XXXX                                  XXX        XX      ......     XX           ",
"                   XX     ......       XX        XXXX                              XXXX       XXX      .......     XX           ",
"                    XX     ......       XX         XXXX                         XXXXX        XXX      .......     XX            ",
"                    XX      ......       XXX         XXXXXX                  XXXXX          XX       .......     XX             ",
"                     XX      .......      XXXX          XXXXXXXXX      XXXXXXXX           XXX       .......     XX              ",
"                      XX      .......       XXX             XXXXXXXXXXXXXXX             XXX        .......     XXX              ",
"                       XX      .......        XXX                                     XXXX        .......      XX               ",
"                        XX      .......         XXXX                                XXXX        ........      XX                ",
"                         XX      ........         XXXX                           XXXXX         ........      XX                 ",
"                          XX      ........          XXXXXX                   XXXXXX          ........       XX                  ",
"                           XX      .........           XXXXXXXXXXX    XXXXXXXXXX           .........      XXX                   ",
"                            XX       .........              XXXXXXXXXXXXXXXX             ..........      XXX                    ",
"                             XX       ..........                                       ..........       XXX                     ",
"                              XXX       ...........                                  ...........       XX                       ",
"                               XXX        ............                            ............       XXX                        ",
"                                 XXX        ..............                   ...............        XXX                         ",
"                                  XXX         ............................................        XXX                           ",
"                                    XXX         ........................................         XXX                            ",
"                                     XXXX          ..................................          XXX                              ",
"                                       XXXX           ...........................            XXXX                               ",
"                                         XXXX              .................               XXXX                                 ",
"                                           XXXX                                         XXXXX                                   ",
"                                             XXXXX                                   XXXXX                                      ",
"                                                XXXXXX                            XXXXXX                                        ",
"                                                   XXXXXXXX                  XXXXXXX                                            ",
"                                                       XXXXXXXXXXXXXXXXXXXXXXXXX                                                ",
"                                                             XXXXXXXXXXXXX                                                      ",
"                                                                                                                                "
};
