/* XPM */
static char *cdb07545bc2b4da296e1daecda312a7bV1ByoolmUp04BZrE[] = {
/* columns rows colors chars-per-pixel */
"64 64 38 1 ",
"  c None",
". c #212D55",
"X c #212E56",
"o c #212E57",
"O c #212F57",
"+ c #222F57",
"@ c #223058",
"# c #223159",
"$ c #22325A",
"% c #22335B",
"& c #23335B",
"* c #22345C",
"= c #23345C",
"- c #23355D",
"; c #23365E",
": c #23375F",
"> c #3BA4C9",
", c #3BA5CA",
"< c #3BA6CA",
"1 c #3BA6CB",
"2 c #3BA7CB",
"3 c #3CA6CB",
"4 c #3CA7CB",
"5 c #3BA7CC",
"6 c #3CA7CC",
"7 c #3CA8CD",
"8 c #3CA9CE",
"9 c #3CAACE",
"0 c #3CAACF",
"q c #3CABCF",
"w c #3CABD0",
"e c #3DABD0",
"r c #3DACD0",
"t c #3DACD1",
"y c #3DADD1",
"u c #3DADD2",
"i c #3DAED2",
"p c #3DAED3",
/* pixels */
"                            ;;;;                                ",
"                        ;;;;;;;;;;;;;                           ",
"                      ;;;;;;;;;;;;;;;;;;;                       ",
"                     ;;;;;;;;;;;;;;;;;;;;;                      ",
"                   ;;;;;;;;;;;;;;;;;;;;;;                       ",
"                   ;;;;;;;;;;;;;;;;;;;;;   u>                   ",
" >>>>>>>>         ;;;;;;;;;;;;;;;;;;;;;      u>                 ",
"  >>>>>>>>       ;;;;;;;;;;;;;;;;;;;;;;  ;     u>               ",
"   >>>>>>>>      ;;;;;;;;;;;;;;;;;;;;;  ;;;;@    0>             ",
"   >>>>>>>>>    ;;;;;;;;;;;;;;;;;;;;;;   @;;;;;    3            ",
"    >>>>>> >>   ;;;;;;;;   ;;;;;;;;;;       ;;;;@   6           ",
"    >>>>>>> >   ;;;;;;    ;;;;;;;;;;@  5      ;;;;   6          ",
"     >>>>>>    @;;;;    ;;;;;;;;;;;;    >>0    +;;;   6>        ",
"       >>>>>   ;;;;    ;;;;;;;;;;;;        >>    ;;;   6        ",
"          >0  @:;;    ;;;;;;;;;;;;@   >>     >u   ;;;   0       ",
"          0  @;;;    ;;;;;;;;;;;;;      >>    >5   @;;   3      ",
"         >   ;;;    ;;;;;;;;;;;;;         >>    7   ;;;   >     ",
"        >   ;;;    ;;;;;;;;;;;;;    >>>     >>   >   ;;@  w     ",
"        0  @;;      ;;;;;;;;;;         >>    >>   5   ;;@  6    ",
"       >  @;;          ;;;;              >>    >   6  +;;  u>   ",
"       w  ;;;                     >>>>     >    >  >w  ;;;  5   ",
"      >  +;;                          >>    >>  >>  >   ;;  w3  ",
"      7  ;;;                   ;        >>   >   >   7  &;@  >  ",
"     >   ;;         ;;;;;;;;;;;;;         >   >   >  >   ;;  0  ",
"     >  ;;;        ;;         ;;           >   >  >>  0  ;;+  > ",
"     0  ;;        ;;                        >  >>  >  >  @;;  3 ",
"     p  ;;       ;                    ;;    >   >  >   u  ;&  3 ",
"    3  @;;;;;;;;;   ;;;;;;;;;;;;;;;;;;;;     >  >   >  0  ;;  u ",
"    5  ;;;                            ;;     >   >  >  5  ;;+  >",
"    >  @;                                     >  >  >  >  ;;@  >",
"    0  ;;                         ;;          >  >         ;;  >",
"    u  ;;;;;;;;;;;;;;;   ;;;;;;;;;;;          >  >   >  u  :@  7",
"    u  ;;            ;;           ;;          >      >  u  ;;  0",
"    w  ;;             ;;                      >   >  >  u  ;@  >",
"    u  ;;              ;;               ;;    >      >  u  ;;  >",
"    u  ;;;;;;;;;;;;;;   ;;;;;;;;;;;;;;;;;;    >  >   >  u  ;@  7",
"    0  ;;                               ;;    >  >  >  >   ;;  >",
"    5  ;;                                     >  >  >  5  ;;+  >",
"    >  ;;;                         ;;;       >   >  >  >  @;+  >",
"    3  @;;;;;;;;;;  ;;;;;;;;;;;;;;;;;;       >  >   >  0  ;;  u ",
"     u  ;;       ;;                 ;       >   >  >      ;;  3 ",
"     3  ;;        ;;                       >>  >   >  >  @;@  > ",
"     3  @:;        ;;;;;;;;;;;;;;          >   >  >   0  ;;+  > ",
"      u  ;;         ;;;;=;;;;;;;;        >>   >   >  >   :;  0  ",
"      >  @:;                            >>   >   >   w  ;;@  >  ",
"      >   ;;                         >>>    >   >>  6   ;;  u   ",
"       7  ;;;                     >>>      >   >>  >   ;;+  >   ",
"       >   ;;   >   >    >>              >>   >>   u  @;;  w    ",
"        7  @:;   >   >>    >>         >>>    >>   6   ;;@  >    ",
"        >0  ;;;   >   >>      >>>>>>>>      >    6   ;;@  7     ",
"         >   ;;@   3    >>                >>   >0   ;;;  0>     ",
"          >   ;;;   u>    >>>          >>>    >0   ;;;   >      ",
"           6   ;;=    >      >>>>>>>>>>     33    ;;;   >       ",
"            0   ;;;    u>                 >6w   @;;;   5        ",
"            >6   ;;;;    u0>           >3u     ;;;@   6         ",
"              3   @;;;@     uuu>>7>7>up      ;;:;@   >          ",
"               >    ;;;;;                  ;;;:@    >           ",
"                >u   +;;;;;;            ;;;;;@    0>            ",
"                 >>    +@;;;;;;;;;@;&;;;;;;@     >              ",
"                   >>     @@@;;:;;:;;;&;++     >>               ",
"                     >6         .+++         >>                 ",
"                       >>3                6>>                   ",
"                          >>>>0u    u03>>>                      ",
"                              >>>>>>>>                          "
};
